<?xml version="1.0" encoding="UTF-8"?>
<svg xmlns="http://www.w3.org/2000/svg" width="340" height="410" viewBox="0 0 340 410">
<rect width="100%" height="100%" fill="white" />
<text x="170" y="30" font-family="Helvetica, Arial, sans-serif" font-size="18" text-anchor="middle">SVD Confusion Matrix</text>
<text x="240" y="380" font-family="Helvetica, Arial, sans-serif" font-size="12" text-anchor="middle">Predicted</text>
<text x="20" y="150" font-family="Helvetica, Arial, sans-serif" font-size="12" text-anchor="middle" transform="rotate(-90 20 150)">Actual</text>
<rect x="160" y="70" width="160" height="160" fill="none" stroke="#999999" />
<rect x="160" y="70" width="40" height="40" fill="#08306b" stroke="#ffffff" />
<text x="180" y="90" font-family="Helvetica, Arial, sans-serif" font-size="12" text-anchor="middle" dominant-baseline="central" fill="#ffffff">53</text>
<rect x="200" y="70" width="40" height="40" fill="#6b84a8" stroke="#ffffff" />
<text x="220" y="90" font-family="Helvetica, Arial, sans-serif" font-size="12" text-anchor="middle" dominant-baseline="central" fill="#ffffff">31</text>
<rect x="240" y="70" width="40" height="40" fill="#8a9fbb" stroke="#ffffff" />
<text x="260" y="90" font-family="Helvetica, Arial, sans-serif" font-size="12" text-anchor="middle" dominant-baseline="central" fill="#000000">24</text>
<rect x="280" y="70" width="40" height="40" fill="#b3c1d5" stroke="#ffffff" />
<text x="300" y="90" font-family="Helvetica, Arial, sans-serif" font-size="12" text-anchor="middle" dominant-baseline="central" fill="#000000">15</text>
<rect x="160" y="110" width="40" height="40" fill="#788fb0" stroke="#ffffff" />
<text x="180" y="130" font-family="Helvetica, Arial, sans-serif" font-size="12" text-anchor="middle" dominant-baseline="central" fill="#000000">28</text>
<rect x="200" y="110" width="40" height="40" fill="#6680a5" stroke="#ffffff" />
<text x="220" y="130" font-family="Helvetica, Arial, sans-serif" font-size="12" text-anchor="middle" dominant-baseline="central" fill="#ffffff">32</text>
<rect x="240" y="110" width="40" height="40" fill="#7d93b3" stroke="#ffffff" />
<text x="260" y="130" font-family="Helvetica, Arial, sans-serif" font-size="12" text-anchor="middle" dominant-baseline="central" fill="#000000">27</text>
<rect x="280" y="110" width="40" height="40" fill="#c0cddd" stroke="#ffffff" />
<text x="300" y="130" font-family="Helvetica, Arial, sans-serif" font-size="12" text-anchor="middle" dominant-baseline="central" fill="#000000">12</text>
<rect x="160" y="150" width="40" height="40" fill="#7d93b3" stroke="#ffffff" />
<text x="180" y="170" font-family="Helvetica, Arial, sans-serif" font-size="12" text-anchor="middle" dominant-baseline="central" fill="#000000">27</text>
<rect x="200" y="150" width="40" height="40" fill="#a5b6cc" stroke="#ffffff" />
<text x="220" y="170" font-family="Helvetica, Arial, sans-serif" font-size="12" text-anchor="middle" dominant-baseline="central" fill="#000000">18</text>
<rect x="240" y="150" width="40" height="40" fill="#788fb0" stroke="#ffffff" />
<text x="260" y="170" font-family="Helvetica, Arial, sans-serif" font-size="12" text-anchor="middle" dominant-baseline="central" fill="#000000">28</text>
<rect x="280" y="150" width="40" height="40" fill="#d2dce8" stroke="#ffffff" />
<text x="300" y="170" font-family="Helvetica, Arial, sans-serif" font-size="12" text-anchor="middle" dominant-baseline="central" fill="#000000">8</text>
<rect x="160" y="190" width="40" height="40" fill="#9caec7" stroke="#ffffff" />
<text x="180" y="210" font-family="Helvetica, Arial, sans-serif" font-size="12" text-anchor="middle" dominant-baseline="central" fill="#000000">20</text>
<rect x="200" y="190" width="40" height="40" fill="#aebdd2" stroke="#ffffff" />
<text x="220" y="210" font-family="Helvetica, Arial, sans-serif" font-size="12" text-anchor="middle" dominant-baseline="central" fill="#000000">16</text>
<rect x="240" y="190" width="40" height="40" fill="#c9d4e3" stroke="#ffffff" />
<text x="260" y="210" font-family="Helvetica, Arial, sans-serif" font-size="12" text-anchor="middle" dominant-baseline="central" fill="#000000">10</text>
<rect x="280" y="190" width="40" height="40" fill="#b7c5d7" stroke="#ffffff" />
<text x="300" y="210" font-family="Helvetica, Arial, sans-serif" font-size="12" text-anchor="middle" dominant-baseline="central" fill="#000000">14</text>
<text x="150" y="90" font-family="Helvetica, Arial, sans-serif" font-size="12" text-anchor="end" dominant-baseline="central">laringite</text>
<text x="150" y="130" font-family="Helvetica, Arial, sans-serif" font-size="12" text-anchor="end" dominant-baseline="central">disfonia_funcional</text>
<text x="150" y="170" font-family="Helvetica, Arial, sans-serif" font-size="12" text-anchor="end" dominant-baseline="central">disfonia_psicogenica</text>
<text x="150" y="210" font-family="Helvetica, Arial, sans-serif" font-size="12" text-anchor="end" dominant-baseline="central">edema_de_reinke</text>
<text x="180" y="240" font-family="Helvetica, Arial, sans-serif" font-size="12" text-anchor="start" transform="rotate(-45 180 240)">laringite</text>
<text x="220" y="240" font-family="Helvetica, Arial, sans-serif" font-size="12" text-anchor="start" transform="rotate(-45 220 240)">disfonia_funcional</text>
<text x="260" y="240" font-family="Helvetica, Arial, sans-serif" font-size="12" text-anchor="start" transform="rotate(-45 260 240)">disfonia_psicogenica</text>
<text x="300" y="240" font-family="Helvetica, Arial, sans-serif" font-size="12" text-anchor="start" transform="rotate(-45 300 240)">edema_de_reinke</text>
</svg>
